<svg xmlns="http://www.w3.org/2000/svg" width="1600" height="1000" viewBox="0 0 1600 1000" role="img" aria-label="AI video avatar voice-over and localization production pipeline">
  <defs><linearGradient id="bg" x1="0" x2="1" y1="0" y2="1"><stop stop-color="#111827"/><stop offset="0.48" stop-color="#1e1b4b"/><stop offset="1" stop-color="#083344"/></linearGradient><linearGradient id="g" x1="0" x2="1"><stop stop-color="#7c5cff"/><stop offset="0.55" stop-color="#22d3ee"/><stop offset="1" stop-color="#22c55e"/></linearGradient></defs>
  <rect width="1600" height="1000" fill="url(#bg)"/>
  <circle cx="800" cy="480" r="350" fill="#22d3ee" opacity="0.1"/><circle cx="220" cy="220" r="210" fill="#7c5cff" opacity="0.16"/>
  <rect x="145" y="175" width="620" height="650" rx="48" fill="#0f172a" stroke="#67e8f9" stroke-opacity="0.34" stroke-width="3"/>
  <circle cx="455" cy="400" r="130" fill="url(#g)" opacity="0.95"/><circle cx="410" cy="365" r="18" fill="#06111f"/><circle cx="500" cy="365" r="18" fill="#06111f"/><path d="M390 445 C430 490 485 490 525 445" fill="none" stroke="#06111f" stroke-width="16" stroke-linecap="round"/>
  <rect x="245" y="610" width="420" height="42" rx="21" fill="#e0f2fe" opacity="0.86"/><rect x="295" y="685" width="320" height="26" rx="13" fill="#93c5fd" opacity="0.58"/>
  <rect x="860" y="220" width="560" height="560" rx="42" fill="#0f172a" stroke="#818cf8" stroke-opacity="0.36" stroke-width="3"/>
  <path d="M930 585 C980 465 1040 650 1090 505 S1195 360 1265 540 S1355 630 1390 460" fill="none" stroke="url(#g)" stroke-width="22" stroke-linecap="round"/>
  <g fill="#111c31" stroke="#334155" stroke-width="2"><rect x="930" y="285" width="410" height="70" rx="24"/><rect x="930" y="650" width="410" height="70" rx="24"/></g>
  <text x="960" y="330" fill="#e0f2fe" font-family="Inter,Arial" font-size="28" font-weight="800">AI video ads</text><text x="960" y="695" fill="#e0f2fe" font-family="Inter,Arial" font-size="28" font-weight="800">AI voice-over</text>
  <text x="170" y="900" fill="#f8fafc" font-family="Inter,Arial" font-size="50" font-weight="900">Avatar Video • Voice • Localization</text>
</svg>