<svg xmlns="http://www.w3.org/2000/svg" width="1600" height="1000" viewBox="0 0 1600 1000" role="img" aria-label="Brand kit production and SEO content assets">
  <defs><linearGradient id="bg" x1="0" x2="1" y1="0" y2="1"><stop stop-color="#0f172a"/><stop offset="0.5" stop-color="#1e293b"/><stop offset="1" stop-color="#172554"/></linearGradient><linearGradient id="g" x1="0" x2="1"><stop stop-color="#22d3ee"/><stop offset="0.5" stop-color="#a78bfa"/><stop offset="1" stop-color="#22c55e"/></linearGradient></defs>
  <rect width="1600" height="1000" fill="url(#bg)"/>
  <circle cx="300" cy="220" r="260" fill="#22d3ee" opacity="0.13"/><circle cx="1300" cy="780" r="300" fill="#a78bfa" opacity="0.15"/>
  <rect x="150" y="160" width="520" height="680" rx="46" fill="#0f172a" stroke="#67e8f9" stroke-opacity="0.36" stroke-width="3"/>
  <rect x="230" y="250" width="160" height="160" rx="36" fill="url(#g)"/><rect x="430" y="250" width="160" height="160" rx="36" fill="#e0f2fe"/><rect x="230" y="470" width="360" height="36" rx="18" fill="#93c5fd" opacity="0.76"/><rect x="230" y="535" width="280" height="26" rx="13" fill="#93c5fd" opacity="0.52"/><rect x="230" y="590" width="330" height="26" rx="13" fill="#93c5fd" opacity="0.52"/>
  <rect x="770" y="160" width="680" height="680" rx="46" fill="#0f172a" stroke="#818cf8" stroke-opacity="0.36" stroke-width="3"/>
  <g fill="#111c31" stroke="#334155" stroke-width="2"><rect x="840" y="250" width="540" height="90" rx="28"/><rect x="840" y="390" width="540" height="90" rx="28"/><rect x="840" y="530" width="540" height="90" rx="28"/></g>
  <text x="880" y="306" fill="#e0f2fe" font-family="Inter,Arial" font-size="30" font-weight="900">Brand kit production</text><text x="880" y="446" fill="#e0f2fe" font-family="Inter,Arial" font-size="30" font-weight="900">SEO-ready content</text><text x="880" y="586" fill="#e0f2fe" font-family="Inter,Arial" font-size="30" font-weight="900">Campaign assets</text>
  <path d="M890 720 H1340" stroke="url(#g)" stroke-width="22" stroke-linecap="round"/><circle cx="990" cy="720" r="30" fill="#22d3ee"/><circle cx="1170" cy="720" r="30" fill="#a78bfa"/><circle cx="1340" cy="720" r="30" fill="#22c55e"/>
</svg>