<svg xmlns="http://www.w3.org/2000/svg" width="1600" height="1000" viewBox="0 0 1600 1000" role="img" aria-label="AI website production and AI app production screens">
  <defs><linearGradient id="bg" x1="0" x2="1" y1="0" y2="1"><stop stop-color="#0f172a"/><stop offset="0.5" stop-color="#123a63"/><stop offset="1" stop-color="#052e2b"/></linearGradient><linearGradient id="g" x1="0" x2="1"><stop stop-color="#ffffff"/><stop offset="0.55" stop-color="#67e8f9"/><stop offset="1" stop-color="#22c55e"/></linearGradient></defs>
  <rect width="1600" height="1000" fill="url(#bg)"/>
  <circle cx="1270" cy="160" r="260" fill="#22d3ee" opacity="0.16"/><circle cx="280" cy="820" r="280" fill="#22c55e" opacity="0.16"/>
  <rect x="120" y="170" width="900" height="610" rx="42" fill="#0f172a" stroke="#67e8f9" stroke-opacity="0.38" stroke-width="3"/>
  <rect x="172" y="230" width="790" height="110" rx="28" fill="#172554"/><rect x="172" y="380" width="360" height="320" rx="28" fill="#111c31"/><rect x="575" y="380" width="387" height="320" rx="28" fill="#111c31"/>
  <rect x="230" y="270" width="320" height="34" rx="17" fill="url(#g)"/><rect x="230" y="430" width="230" height="24" rx="12" fill="#93c5fd" opacity="0.72"/><rect x="230" y="485" width="250" height="24" rx="12" fill="#93c5fd" opacity="0.48"/><rect x="625" y="430" width="250" height="24" rx="12" fill="#93c5fd" opacity="0.72"/><rect x="625" y="485" width="210" height="24" rx="12" fill="#93c5fd" opacity="0.48"/>
  <rect x="1080" y="220" width="330" height="610" rx="58" fill="#020617" stroke="#818cf8" stroke-opacity="0.42" stroke-width="4"/>
  <rect x="1130" y="300" width="230" height="350" rx="34" fill="#111c31"/><circle cx="1245" cy="720" r="32" fill="#334155"/>
  <path d="M1175 410h140M1175 475h95M1175 540h130" stroke="#67e8f9" stroke-width="18" stroke-linecap="round" opacity="0.8"/>
  <text x="170" y="860" fill="#f8fafc" font-family="Inter,Arial" font-size="48" font-weight="900">AI Website Production + AI App Production</text>
</svg>